HIERARCHY
ROOT Hips
{
	OFFSET 0.000000 0.000000 0.000000
	CHANNELS 6 Xposition Yposition Zposition Zrotation Yrotation Xrotation 
	JOINT LHipJoint
	{
		OFFSET 0.000000 0.000000 0.000000
		CHANNELS 3 Zrotation Yrotation Xrotation
		JOINT LeftUpLeg
		{
			OFFSET 1.363060 -1.794630 0.839290
			CHANNELS 3 Zrotation Yrotation Xrotation
			JOINT LeftLeg
			{
				OFFSET 2.448110 -6.726130 0.000000
				CHANNELS 3 Zrotation Yrotation Xrotation
				JOINT LeftFoot
				{
					OFFSET 2.562200 -7.039590 0.000000
					CHANNELS 3 Zrotation Yrotation Xrotation
					JOINT LeftToeBase
					{
						OFFSET 0.157640 -0.433110 2.322550
						CHANNELS 3 Zrotation Yrotation Xrotation
						End Site
						{
							OFFSET 0.000000 0.000000 0.000000
						}
					}
				}
			}
		}
	}
	JOINT RHipJoint
	{
		OFFSET 0.000000 0.000000 0.000000
		CHANNELS 3 Zrotation Yrotation Xrotation
		JOINT RightUpLeg
		{
			OFFSET -1.305520 -1.794630 0.839290
			CHANNELS 3 Zrotation Yrotation Xrotation
			JOINT RightLeg
			{
				OFFSET -2.542530 -6.985550 0.000000
				CHANNELS 3 Zrotation Yrotation Xrotation
				JOINT RightFoot
				{
					OFFSET -2.568260 -7.056230 0.000000
					CHANNELS 3 Zrotation Yrotation Xrotation
					JOINT RightToeBase
					{
						OFFSET -0.164730 -0.452590 2.363150
						CHANNELS 3 Zrotation Yrotation Xrotation
						End Site
						{
							OFFSET 0.000000 0.000000 0.000000
						}
					}
				}
			}
		}
	}
	JOINT LowerBack
	{
		OFFSET 0.000000 0.000000 0.000000
		CHANNELS 3 Zrotation Yrotation Xrotation
		JOINT Spine
		{
			OFFSET 0.028270 2.035590 -0.193380
			CHANNELS 3 Zrotation Yrotation Xrotation
			JOINT Spine1
			{
				OFFSET 0.056720 2.048850 -0.042750
				CHANNELS 3 Zrotation Yrotation Xrotation
				JOINT Neck
				{
					OFFSET 0.000000 0.000000 0.000000
					CHANNELS 3 Zrotation Yrotation Xrotation
					JOINT Neck1
					{
						OFFSET -0.054170 1.746240 0.172020
						CHANNELS 3 Zrotation Yrotation Xrotation
						JOINT Head
						{
							OFFSET 0.104070 1.761360 -0.123970
							CHANNELS 3 Zrotation Yrotation Xrotation
							End Site
							{
								OFFSET 0.000000 0.000000 0.000000
							}
						}
					}
				}
				JOINT LeftShoulder
				{
					OFFSET 0.000000 0.000000 0.000000
					CHANNELS 3 Zrotation Yrotation Xrotation
					JOINT LeftArm
					{
						OFFSET 3.362410 1.200890 -0.311210
						CHANNELS 3 Zrotation Yrotation Xrotation
						JOINT LeftForeArm
						{
							OFFSET 4.983000 -0.000000 -0.000000
							CHANNELS 3 Zrotation Yrotation Xrotation
							JOINT LeftHand
							{
								OFFSET 3.483560 -0.000000 -0.000000
								CHANNELS 3 Zrotation Yrotation Xrotation
								JOINT LeftFingerBase
								{
									OFFSET 0.000000 0.000000 0.000000
									CHANNELS 3 Zrotation Yrotation Xrotation
									JOINT LeftHandIndex1
									{
										OFFSET 0.715260 -0.000000 -0.000000
										CHANNELS 3 Zrotation Yrotation Xrotation
										End Site
										{
											OFFSET 0.000000 0.000000 0.000000
										}
									}
								}
								JOINT LThumb
								{
									OFFSET 0.000000 0.000000 0.000000
									CHANNELS 3 Zrotation Yrotation Xrotation
									End Site
									{
										OFFSET 0.000000 0.000000 0.000000
									}
								}
							}
						}
					}
				}
				JOINT RightShoulder
				{
					OFFSET 0.000000 0.000000 0.000000
					CHANNELS 3 Zrotation Yrotation Xrotation
					JOINT RightArm
					{
						OFFSET -3.136600 1.374050 -0.404650
						CHANNELS 3 Zrotation Yrotation Xrotation
						JOINT RightForeArm
						{
							OFFSET -5.241900 -0.000000 -0.000000
							CHANNELS 3 Zrotation Yrotation Xrotation
							JOINT RightHand
							{
								OFFSET -3.444170 -0.000000 -0.000000
								CHANNELS 3 Zrotation Yrotation Xrotation
								JOINT RightFingerBase
								{
									OFFSET 0.000000 0.000000 0.000000
									CHANNELS 3 Zrotation Yrotation Xrotation
									JOINT RightHandIndex1
									{
										OFFSET -0.622530 -0.000000 -0.000000
										CHANNELS 3 Zrotation Yrotation Xrotation
										End Site
										{
											OFFSET 0.000000 0.000000 0.000000
										}
									}
								}
								JOINT RThumb
								{
									OFFSET 0.000000 0.000000 0.000000
									CHANNELS 3 Zrotation Yrotation Xrotation
									End Site
									{
										OFFSET 0.000000 0.000000 0.000000
									}
								}
							}
						}
					}
				}
			}
		}
	}
}
MOTION
Frames: 9
Frame Time: 0.008333
20.257623 19.050199 2.342674 -0.016383 1.466731 9.713595 -16.082168 2.367768 3.809791 6.258323 -3.033316 -21.250373 -16.503705 -34.191864 41.457115 -26.704339 43.090512 -22.518024 -0.135165 0.452971 -1.226140 14.262524 -2.251465 4.012384 -7.487737 8.148749 -19.949380 0.269123 6.165239 24.081546 24.952639 -14.316878 -6.774895 0.108759 0.423472 -2.290170 1.881823 -0.483658 5.398867 0.809357 -0.443120 -3.986608 -1.887447 -0.535178 -0.198508 -3.183541 -0.841641 -6.187908 7.441509 3.284376 35.432133 3.878336 5.993467 17.297659 -8.759278 -7.323920 0.676000 -70.322754 -16.402877 43.344024 5.724723 -1.094659 9.150963 22.742345 -7.295067 6.398444 -8.469499 1.191903 -0.000000 0.000000 0.000000 0.000000 0.000000 0.000000 0.000000 10.038058 7.474981 6.189766 68.158672 23.917991 39.746895 1.143183 1.442806 18.031892 -19.698534 5.815548 16.062034 7.743948 0.297473 -0.000000 0.000000 0.000000 0.000000 0.000000 0.000000 0.000000
20.251189 19.051218 2.340157 0.003634 1.533629 9.708709 -16.120624 2.436975 3.757582 6.113537 -2.668166 -21.256494 -15.379251 -33.629739 40.363419 -26.505681 41.976606 -21.369835 -0.145879 0.488064 -1.320228 14.264232 -2.253025 4.007300 -7.462701 8.066787 -19.940542 0.329931 6.330802 24.129088 25.000475 -14.471574 -6.996842 0.127622 0.490067 -2.231735 1.933863 -0.491724 5.395378 0.810891 -0.454580 -3.985298 -1.889600 -0.545659 -0.212233 -3.215935 -0.835510 -6.170812 7.681417 3.780448 35.527461 3.408738 6.756923 17.241208 -8.738603 -7.336540 0.642788 -70.414860 -16.369060 43.346940 5.802679 -1.269465 9.302954 22.991465 -7.394925 6.489282 -8.553060 1.180615 -0.000000 0.000000 0.000000 0.000000 0.000000 0.000000 0.000000 10.047283 7.469080 6.190708 68.163746 23.867476 40.074557 1.059601 1.421315 17.838423 -19.704213 5.808539 15.871487 7.743222 0.271707 -0.000000 0.000000 0.000000 0.000000 0.000000 0.000000 0.000000
20.245059 19.053399 2.339737 0.049680 1.507749 9.678507 -16.084156 2.382028 3.802061 6.181080 -2.844041 -21.136480 -16.178157 -34.253665 41.023289 -26.882415 42.850850 -22.221569 -0.155838 0.390985 -1.314553 14.257646 -2.233070 3.995684 -7.524636 8.120150 -19.845410 0.572847 6.751345 24.296486 25.141608 -14.890879 -7.427219 0.131534 0.504430 -2.239066 1.899166 -0.473698 5.349583 0.806959 -0.435248 -3.976297 -1.907507 -0.526595 -0.177769 -3.309702 -0.881179 -6.193320 7.743296 4.332874 36.015121 4.019604 7.247738 16.061803 -8.713360 -7.342545 0.679998 -70.495939 -16.436534 43.227560 5.791027 -1.299893 9.545538 22.995716 -7.470309 6.699804 -8.568403 1.157239 -0.000000 0.000000 0.000000 0.000000 0.000000 0.000000 0.000000 10.098340 7.535904 6.212052 68.042503 23.801756 39.379547 1.160253 1.481192 18.037649 -19.769693 5.898280 16.026869 7.776016 0.300040 -0.000000 0.000000 0.000000 0.000000 0.000000 0.000000 0.000000
20.237732 19.055119 2.344415 0.095443 1.527240 9.688837 -16.086173 2.395343 3.839885 6.187041 -2.890570 -21.089050 -16.258531 -34.425013 41.025286 -26.941769 43.050658 -22.268157 -0.190919 0.466241 -1.594086 14.268429 -2.262371 4.014543 -7.513066 7.998097 -19.835740 -0.007410 5.440874 23.535979 24.153262 -14.183842 -6.124478 0.320242 1.167104 -1.865190 1.923290 -0.468740 5.267649 0.807887 -0.433726 -3.984760 -1.933153 -0.524199 -0.166047 -3.336201 -0.876920 -6.205266 7.781559 4.589398 35.716156 4.018776 7.489076 17.163007 -8.657821 -7.321440 0.671125 -70.598025 -16.427063 43.284301 5.806551 -1.377712 9.738302 23.231431 -7.566313 6.828743 -8.654038 1.150168 -0.000000 0.000000 0.000000 0.000000 0.000000 0.000000 0.000000 10.043367 7.512451 6.242257 68.110996 23.762839 39.385587 1.163902 1.467303 18.063829 -19.821713 5.936812 16.039752 7.798555 0.285632 -0.000000 0.000000 0.000000 0.000000 0.000000 0.000000 0.000000
20.231564 19.057039 2.345776 0.110128 1.520889 9.678799 -16.097511 2.432065 3.849987 6.200816 -2.839897 -21.006664 -15.855686 -34.215342 40.504779 -26.920527 42.747937 -21.938414 -0.218315 0.436224 -1.749426 14.275335 -2.278653 4.013486 -7.521759 8.083647 -19.780240 0.282453 6.191001 23.867467 24.495137 -14.822912 -6.875761 0.318216 1.156942 -1.808333 1.938135 -0.453178 5.256753 0.806294 -0.419569 -3.984716 -1.946793 -0.509427 -0.182805 -3.365931 -0.905886 -6.194452 7.746440 4.767937 35.749713 4.007300 7.673516 17.095264 -8.635054 -7.276884 0.650734 -70.681804 -16.448944 43.363414 5.830535 -1.413559 9.879685 23.258747 -7.598624 6.957220 -8.665476 1.140228 -0.000000 0.000000 0.000000 0.000000 0.000000 0.000000 0.000000 10.037390 7.510138 6.232121 68.140154 23.689059 39.430599 1.107733 1.489339 18.032252 -20.008251 5.994857 15.970286 7.863990 0.278517 -0.000000 0.000000 0.000000 0.000000 0.000000 0.000000 0.000000
20.226424 19.057371 2.350720 0.128499 1.673263 9.667461 -16.119510 2.501427 3.804340 6.212076 -2.843219 -20.885220 -14.195240 -32.792834 38.711021 -26.582625 41.020501 -20.385957 -0.240632 0.260818 -1.771396 14.281720 -2.298346 4.026143 -7.467059 7.882267 -19.754470 -0.024033 5.610384 23.522044 24.277659 -14.376497 -6.310910 0.372769 1.351377 -1.809011 1.974571 -0.480083 5.216296 0.808757 -0.447913 -3.984741 -1.963952 -0.538183 -0.173271 -3.386318 -0.927966 -6.209432 7.718008 4.859813 35.813054 3.947929 7.785891 17.002380 -8.670347 -7.232248 0.672759 -70.677846 -16.519442 43.286801 5.808821 -1.492483 10.120633 23.330011 -7.637931 7.174544 -8.696856 1.107213 -0.000000 0.000000 0.000000 0.000000 0.000000 0.000000 0.000000 10.074523 7.458907 6.227168 68.137422 23.622319 39.468118 1.102915 1.486719 18.006049 -19.960484 6.045991 15.931479 7.854094 0.255715 -0.000000 0.000000 0.000000 0.000000 0.000000 0.000000 0.000000
20.220371 19.059351 2.355201 0.138907 1.724676 9.671078 -16.106373 2.470828 3.838430 6.248256 -2.935325 -20.800002 -14.553514 -33.244985 39.065382 -26.983269 41.405722 -21.117246 -0.206155 0.279565 -1.560506 14.281637 -2.284753 4.034300 -7.495264 7.999586 -19.628049 -0.017291 5.559746 23.395506 24.364400 -14.429941 -6.442254 0.351761 1.278134 -1.838168 1.997916 -0.477942 5.166290 0.808763 -0.448711 -3.985029 -1.978410 -0.539323 -0.181412 -3.401282 -0.949972 -6.211012 7.647121 4.902583 35.884664 3.856006 7.836850 16.843157 -8.691998 -7.176480 0.660741 -70.676656 -16.548398 43.290893 5.782058 -1.552940 10.207335 23.367358 -7.634928 7.259107 -8.711101 1.085251 -0.000000 0.000000 0.000000 0.000000 0.000000 0.000000 0.000000 10.096777 7.423363 6.228252 68.156088 23.568551 39.592171 1.080331 1.499564 17.971147 -20.092481 6.068640 15.874487 7.899186 0.260187 -0.000000 0.000000 0.000000 0.000000 0.000000 0.000000 0.000000
20.215063 19.059287 2.356630 0.153170 1.804325 9.662699 -16.112688 2.503348 3.799185 6.257090 -2.949629 -20.692230 -13.480133 -32.266537 37.878020 -26.811435 40.291586 -20.153044 -0.233457 0.169225 -1.659903 14.301553 -2.280233 4.054818 -7.513346 8.124427 -19.465613 -0.434169 4.990249 22.956092 24.458330 -14.101654 -6.056583 0.331591 1.199528 -1.712436 1.993907 -0.491073 5.146560 0.809820 -0.461058 -3.982814 -1.952269 -0.551911 -0.190366 -3.420116 -0.967757 -6.196518 7.632147 4.917660 35.972672 3.680255 7.910737 16.701845 -8.725700 -7.186542 0.626170 -70.680407 -16.550565 43.232680 5.790593 -1.603483 10.368126 23.478166 -7.687765 7.387061 -8.751722 1.077357 -0.000000 0.000000 0.000000 0.000000 0.000000 0.000000 0.000000 10.174818 7.437200 6.245503 68.121330 23.501923 40.162921 0.991174 1.459738 17.675257 -19.910708 5.989070 15.621286 7.828735 0.234166 -0.000000 0.000000 0.000000 0.000000 0.000000 0.000000 0.000000
20.209672 19.059499 2.361499 0.167392 1.849503 9.664734 -16.112420 2.534499 3.809154 6.233671 -2.903561 -20.639431 -13.240300 -32.217023 37.595935 -26.847246 40.094653 -19.976721 -0.233823 0.161274 -1.656645 14.302751 -2.277737 4.081546 -7.631402 8.356075 -19.358428 -0.389528 4.534540 22.782405 24.315770 -13.989167 -5.984392 0.338095 1.223796 -1.734223 1.996408 -0.490720 5.108475 0.809829 -0.461252 -3.984745 -1.956406 -0.552824 -0.183872 -3.445476 -0.985256 -6.209861 7.530472 4.887359 35.940084 3.696443 7.831167 16.710457 -8.710218 -7.146836 0.630677 -70.700877 -16.656533 43.152875 5.700466 -1.589905 10.521976 23.638329 -7.802947 7.472442 -8.822112 1.095603 -0.000000 0.000000 0.000000 0.000000 0.000000 0.000000 0.000000 10.180475 7.413520 6.256913 68.074617 23.494572 39.654114 1.129826 1.501255 17.957976 -19.957726 6.038228 15.879221 7.853145 0.269381 -0.000000 0.000000 0.000000 0.000000 0.000000 0.000000 0.000000
